<?xml version="1.0" encoding="UTF-8"?>
<svg id="popup" xmlns="http://www.w3.org/2000/svg" viewBox="0 0 25 19.79">
  <defs>
    <style>
      .cls-1 {
        fill: #fff;
      }
    </style>
  </defs>
  <path class="cls-1" d="M12.5,5.22V.52C12.5,.23,12.27,0,11.98,0c-.1,0-.21,.03-.29,.09L.23,7.9c-.24,.16-.3,.49-.14,.72,.04,.05,.08,.1,.14,.14l11.46,7.81c.24,.16,.56,.1,.72-.14,.06-.09,.09-.19,.09-.29v-4.67c5.92,.34,11.4,6.38,11.46,7.78v.03c0,.28,.24,.51,.52,.51h0c.29,0,.52-.23,.52-.52v-.03c-.1-5.77-4.49-13.7-12.5-14.03Z"/>
</svg>